<?xml version="1.0" encoding="UTF-8"?>
<svg version="1.1" viewBox="0 0 1600 1600" width="1280" height="1280" xmlns="http://www.w3.org/2000/svg">
<path transform="translate(666,64)" d="m0 0h26l26 2 23 5 12 5 11 6 17 12 18 18v2l5-5 11-12 10-8 18-11 14-6 17-4 24-3h49l34 3 26 4 28 7 34 13 19 9 22 13 15 11 11 9 15 13 14 15 13 17 10 15 10 18 6 12 7 7 6 3 16 3 18 6 29 13 20 11 27 18 13 10 10 8 13 12 17 17 9 11 12 15 10 15 12 20 14 27 12 29 8 26 7 29 4 25 2 23v41l-3 34-6 31-11 41-11 31-13 33-10 21-3 5 1 5 20 26 10 14 9 16 9 21 5 16 3 20v49l-3 30-5 24-9 25-8 16-10 16-13 16-4 5-8 7-11 10-10 7-14 8-12 6-8 3 2 10 12 36 3 14 2 16v34l-4 24-7 21-9 20-8 12-9 12-9 10-1 2h-2l-2 4-22 18-18 11-25 11-19 6-33 8-24 4-36 3-8 2-3 7-4 10-18 27-10 13-12 13-12 11-15 11-18 10-17 7-24 7-22 5-19 3-19 2h-43l-22-3-20-6-16-8-14-9-13-10-11-12-5-4-5 1-16 15-9 8-15 10-19 9-16 5-18 3-10 1h-48l-29-3-26-6-24-8-18-8-15-9-13-10-13-12-10-10-11-15-8-13-10-16-7-17-4-5h-15l-21-3-14-4-16-4-26-10-16-8-16-10-13-10-13-12-11-12-10-14-11-19-8-19-5-17-3-19v-31l2-20 4-18 13-37-5-2-19-10-14-8-17-12-13-11-8-7-20-20-11-14-10-14-12-22-7-15-7-20-5-22-1-9v-40l2-17 5-23 10-25 10-19 12-19 7-9 3-9-2-9-6-17-8-19-15-44-9-35-6-31-3-31v-57l3-31 5-28 8-30 9-27 12-28 12-22 8-14 12-18 8-11 10-13 10-11 7-8 9-9 2-3h2v-2l14-11 10-8 21-13 23-12 20-8 20-4 6-4 7-10 7-14 7-10 9-13 12-14 8-9 8-7 7-7 13-10 13-9 25-15 15-8 25-11 30-10 27-7 27-5 37-4zm3 63-29 2-23 3-39 8-18 5-31 12-19 9-23 14-11 8-10 8-11 9v2l-4 2-8 8-9 11-6 8-10 18-6 15-5 14-10 2-18 2-17 5-15 6-16 8-15 9-14 10-16 15-5 4-7 8-9 10-11 14-12 19-9 16-8 15-14 33-6 19-6 26-5 30-3 25v33l4 33 6 33 8 30 12 34 5 10 4 3 3 1h109l12-1 6-5 9-15 9-11 13-13 11-7 13-6 15-4 9-1h15l19 3 16 6 11 6 11 9 10 11 9 14 7 15 4 15 1 11v16l-3 15-6 15-9 14-9 11-12 10-16 9-14 5-21 3-23-1-16-4-16-8-10-8-12-12-18-28-3-2h-77l-14 1-14 4-8 9-7 8-9 10-14 21-7 16-7 20-4 17-2 15v21l3 19 5 16 7 17 8 15 10 14 14 15 11 10 17 12 15 9 19 10 24 10 27 10 13 5-1 8-8 11-6 9-12 23-6 15-6 18-4 18-1 5v23l4 18 6 15 8 14 9 11 10 10 13 10 15 9 16 8 15 6 13 4 15 3 23 3 33 3 6 2 4 18 4 15 7 16 8 15 8 10 9 9 19 14 16 8 15 6 20 6 24 4 19 2h34l16-3 13-5 14-8 10-9 6-7 8-16 4-11 3-19v-336l1-93-1-5-4-1h-149l-7 1-1 2v114l1 15 1 4 19 11 9 7 3 3h2l2 4 9 10 9 15 6 15 3 16v21l-3 14-7 16-9 14-9 11-11 9-16 9-14 5-11 2h-30l-11-2-15-5-14-8-7-6h-2l-1-3-5-5-7-8-6-11-7-16-4-18v-23l3-14 7-17 7-11 9-11 14-11 16-9 5-6 1-4 1-162 1-29 219-1 4-2v-221l-1-33-1-1-37-1h-121l-1-20v-136l-2-4h-51l-16 1-2 1-7 16-9 12-11 11-10 7-17 9-14 4-15 2h-10l-20-2-18-6-14-8-14-13-11-15-7-16-4-12-2-11v-21l3-16 6-16 7-12 7-9 11-11 13-8 12-6 19-5 9-1h16l14 2 15 5 15 8 12 11 7 8 9 14 7 11 5 4 129 1 1 2 1 157h94l2-1v-327l-2-36-3-23-6-20-8-17-7-9-8-6-10-5-16-4-9-1zm226 0-14 3-12 5-12 9-7 9-6 12-6 20-4 24-2 20-1 18-1 79v90h248l14-1 6-7 8-14 8-10 10-11 15-10 11-5 15-4h30l16 3 16 6 12 8 7 6h2v2l5 5 9 12 8 14 5 13 2 10v29l-4 17-8 16-9 13-6 6v2l-4 2-7 6-18 10-16 5-16 2h-12l-18-2-15-5-13-7-12-11-8-8-9-14-6-11-5-5h-259l-2 1v673h130l6-2 6-9 6-11 8-10 13-13 14-9 12-5 11-3 6-1h21l19 3 16 6 14 9 12 11 8 10 9 15 6 15 2 10v31l-4 16-6 14-10 14-11 12-8 6-17 9-17 5-17 2-21-1-15-3-16-7-10-8-7-6-11-14-11-19-4-5h-58l-75 1-1 2v162l2 22 4 17 6 14 8 12 9 9 10 7 13 6 16 4 7 1h29l28-3 26-5 27-9 14-7 12-8 14-11 9-9 7-10 8-16 6-13 4-14 2-14 2-5 3-1 52-3 38-5 26-5 24-8 16-8 17-10 10-9 8-7 9-12 7-16 6-21 1-6v-29l-4-17-12-31-10-24-3-11-1-9v-123l-1-2h-284l-3-3v-114l-1-47-5-5-17-9-11-9-10-11-8-13-8-17-3-10-1-9v-11l2-17 5-15 7-14 9-12 8-9 13-10 16-8 9-3 12-2h28l16 3 15 6 11 7 12 11 10 13 8 14 6 14 3 16v23l-4 16-8 17-10 14-9 10-8 6-19 9-3 3-2 11v26l-1 34v32l10 1h272l5 2 1 2 1 123 2 11 5-1 10-7 10-10 10-13 11-18 7-20 6-26 3-27v-22l-2-19-4-16-9-20-8-12-8-10-12-13-15-15-8-7-2-2 1-6 6-12 11-25 15-36 8-21 12-37 7-30 5-26 3-29v-23l-3-28-5-29-7-25-7-20-11-24-12-22-12-18-10-14-12-14-12-13-8-8-11-9-10-8-17-11-20-11-16-7-16-6-22-6-36-6-2-6-6-16-8-20-8-16-8-14-9-11-8-10-8-7-15-12-13-8-21-11-24-9-19-6-29-6-24-3-24-2zm-456 288-8 4-10 9-6 12v12l3 10 9 10 8 6 9 2h7l10-3 10-9 6-8 2-5-1-15-5-12-5-6-8-5-7-2zm736 0-8 4-10 10-4 9-1 4v11l3 9 9 10 5 4 8 3h15l9-5 5-4 8-10 2-5v-8l-2-10-4-8-8-9-9-4-4-1zm-159 288-7 3-8 6-7 9-3 7-1 8 3 12 5 7 10 8 9 3h13l14-7 9-9 3-7-1-13-4-11-7-9-8-5-9-2zm-577 32-8 4-10 10-4 8-1 4v12l3 9 9 10 6 5 7 2h14l10-5 8-7 6-9v-16l-4-11-6-8-5-4-7-3-5-1zm608 416-8 4-9 9-5 10-1 4v12l4 10 10 10 7 4 5 1h13l10-5 11-11 3-6v-15l-3-10-6-8-7-6-11-3zm-479 1-12 6-7 7-5 10-1 3v10l3 9 6 8 8 7 9 3h14l10-5 9-8 5-9v-12l-3-12-6-9-8-6-6-2z" fill="#FDDF70"/>
<path transform="translate(1060,927)" d="m0 0h276l5 2 2 3v125l-2-1-1-4-1-23-1-91-2-4-21 1h-60l-36-2h-22l-33 1-69-1-27-1-10-2-3-2z" fill="#FCD060"/>
<path transform="translate(830,481)" d="m0 0h1v633l-1 38-3-1v-50l1-563 1-55z" fill="#FCD060"/>
<path transform="translate(1156,983)" d="m0 0h34l17 2h46l25 2 5 3 2 3 1 14v27l-1 22-1 77-2-1-2-8-1-9v-125l-90 1h-191l4-2 25-1 74-1 30-2 9-1z" fill="#FCD060"/>
<path transform="translate(762,956)" d="m0 0 6 1 1 2 2 41v367l-4 4-1-97v-217l1-98-10-1v-1z" fill="#FCD060"/>
<path transform="translate(551,416)" d="m0 0h118l2 3v154l-2 3v-3h-2v-95l1-54-1-6-9 1-5 2h-17l-57-1h-22l-7-2z" fill="#FCD060"/>
<path transform="translate(951,415)" d="m0 0h125l6 1-5 4-13 2h-47l-12-1-96-2-54-2v-1z" fill="#FCD060"/>
<path transform="translate(545,896)" d="m0 0h97v1l-45 1h-45l-6-1 1 7 1 44v26l-1 106-2 4h-2v-158l1-29z" fill="#FCD060"/>
<path transform="translate(726,635)" d="m0 0h14l25 1 3 1 2 10v84l-1 164-2-1v-221l-1-33-37-1h-18l-31-1v-1z" fill="#FCD060"/>
<path transform="translate(897,474)" d="m0 0h77l49 1h45l13 2v1h-233v-1l26-2z" fill="#FCD060"/>
<path transform="translate(767,274)" d="m0 0 2 1 1 6v98l-1 196h-2z" fill="#FCD060"/>
<path transform="translate(606,479)" d="m0 0 3 3 2 20v91l-1 37-1 8-2-2-1-18z" fill="#FCD060"/>
<path transform="translate(991,832)" d="m0 0 4 3 1 47-2 100-1 7-2-2z" fill="#FCD060"/>
<path transform="translate(259,735)" d="m0 0h82l4 2-5 3-11 1-30-1-35 1-8-2-5-2v-1z" fill="#FCD060"/>
<path transform="translate(832,1152)" d="m0 0h120l-4 2-3 1-12 1h-59l-21-1-20-1z" fill="#FCD060"/>
<path transform="translate(666,64)" d="m0 0h26l26 2 4 2-1 1-43 2-16-2-18-1 1-2 4-1z" fill="#FCD161"/>
<path transform="translate(440,352)" d="m0 0h16l14 2 8 3v1l-10 1-7-1-17 2h-22l-5-2 1-2 13-3z" fill="#FCD161"/>
<path transform="translate(829,1216)" d="m0 0 2 1v34l-1 111h-1l-1-8v-132z" fill="#FCD060"/>
<path transform="translate(1009,641)" d="m0 0h28l16 3 1 2-5 1h-18l-15 1h-15l-9-2 1-2z" fill="#FCD060"/>
<path transform="translate(1054,833)" d="m0 0h2v28l-2 66-2-3-1-6v-31l1-45z" fill="#FCD060"/>
<path transform="translate(898,65)" d="m0 0h49l25 2 6 2v1h-27l-20-1h-51v-2z" fill="#FCD161"/>
<path transform="translate(606,963)" d="m0 0h1v120l-2-3-2-17 1-58 1-37z" fill="#FCD060"/>
<path transform="translate(1165,353)" d="m0 0h30l16 3 3 1v2h-13l-4-1-7 1h-33l-5-1 1-2z" fill="#FCD161"/>
<path transform="translate(131,526)" d="m0 0h1v41l1 40-1 14h-1l-2-20v-57z" fill="#FCD060"/>
<path transform="translate(1042,1088)" d="m0 0h21l19 3 5 2v1h-11l-8-1-19 1-17-1-2-2 6-2z" fill="#FCD161"/>
<path transform="translate(439,672)" d="m0 0h15l19 3 5 2v1l-23-1-20 1h-13l-2-2 5-2z" fill="#FCD161"/>
<path transform="translate(858,1212)" d="m0 0 73 1v1l-25 1h-64l-2-2z" fill="#FCD060"/>
<path transform="translate(1467,536)" d="m0 0 2 3 1 13v41l-1 11-2-2z" fill="#FCD060"/>
<path transform="translate(930,713)" d="m0 0h1v44l-2-2-2-12v-11l2-17z" fill="#FCD060"/>
<path transform="translate(1468,903)" d="m0 0 2 4v49l-1 9h-1l-1-60z" fill="#FCD060"/>
<path transform="translate(482,1161)" d="m0 0h1v42l-2-3-1-6v-23z" fill="#FCD060"/>
<path transform="translate(130,899)" d="m0 0h1l1 27-1 29h-1l-1-7v-40z" fill="#FCD060"/>
<path transform="translate(354,428)" d="m0 0h1v39l-2-3-1-6v-21l1-8z" fill="#FCD060"/>
<path transform="translate(1044,1274)" d="m0 0h26l2 2-2 1-19 1-12-2v-1z" fill="#FCD262"/>
<path transform="translate(1116,718)" d="m0 0h2l1 8v23l-1 5h-1l-1-15z" fill="#FCD060"/>
<path transform="translate(540,750)" d="m0 0 2 2 1 11v16l-1 6h-1l-1-14z" fill="#FCD060"/>
<path transform="translate(1275,426)" d="m0 0 2 1 1 6v28l-2-2z" fill="#FCD060"/>
<path transform="translate(1096,1345)" d="m0 0h9l-2 2-10 4h-2l2-5z" fill="#FCD060"/>
<path transform="translate(492,1345)" d="m0 0h8l6 3-1 3-13-5z" fill="#FCD060"/>
</svg>
