<?xml version="1.0" encoding="UTF-8"?>
<svg version="1.1" viewBox="0 0 1600 1600" width="1280" height="1280" xmlns="http://www.w3.org/2000/svg">
<path transform="translate(1277,159)" d="m0 0h28l15 2 11 4 8 7 2 5 1 10 1 114v51l34 1 29 2 14 3 16 8 15 14 10 14 5 10 2 7 1 8 1 671v86l-6-4-9-9-7-8-9-9-7-8-16-17-9-10-1-5v-682l-1-7-33-3-29-1v547l1 81-1 4-4-2-10-8-16-16-7-8-26-26-1-2v-762l-26 2-77 5-51 5-39 5-28 5-50 12-27 8-32 11-30 13-16 8-21 11-22 14-19 13-7 6-2 4-1 25-1 161v122l-6-1-11-5-27-10-12-4-5-6-1-2v-277l-2-6-2-4-4-2-17-12-22-14-18-10-17-9-26-11-30-11-28-9-44-11-41-8-29-4-57-6-45-3-54-3h-13v412l-1 398h72l52 2 57 4 66 7 45 7 50 10 36 9 30 9 27 10 17 7v-74l1-48 2-1 6 5 6 8 11 12 7 8 9 10 7 8 9 10 1 3 2 57 8-1 10-4 14-8 5-2 5 1 10 5 28 28 14 10 2 4-8 5-18 7-17 6-22 9-31 15-11 7-13 5h-9l-14-5-31-16-29-12-36-12-29-8-29-7-35-7-56-8-52-5-52-3-75-2-57-1-20-1-13-2-5-3-4-5-4-14-1-11-1-31v-615h-26l-30 2-6 2-1 6-1 28-1 88v687l1 15 1 3 7 1 17 1 220 1h125l328-1h99l52 1 11 4 12 11 11 12 8 7 7 7 12 9 4 6-1 3-5 1h-846l-46-1-21-2-12-4-12-7-12-11-8-9-6-10-4-11-2-14-1-22v-791l2-18 7-14 10-13 11-10 14-9 14-5 17-2 47-2 3-1 1-12 1-153 2-10 5-8 7-6 7-2 13-1h62l59 2 53 4 48 6 49 9 36 8 42 12 27 9 29 12 34 16 22 12 17 11 15 10 13 10 6 4 4-1 7-6 5-5 11-8 18-12 15-9 24-13 23-11 36-14 28-9 37-10 41-9 35-6 37-5 42-4 52-3z" fill="#FEE06A"/>
<path transform="translate(766,700)" d="m0 0h9l25 7 43 14 28 10 23 8 15 6 15 5 20 8 18 8 12 7 13 10 5 4v2l4 2 20 20 5 4 7 8 220 220v2l4 2v2l4 2 8 8v2l4 2v2l4 2 28 28v2l4 2 68 68v2h2v2h2l5 6 8 7 109 109 7 8 11 12 10 15 10 18 16 26 8 15 6 15 4 15 1 16-3 17-5 14-11 17-9 11-8 8-14 10-11 5-13 4-11 2h-21l-14-2-18-6-15-8-20-15-8-1-13-5-13-9-13-12-12-11-225-225-6-5v-2l-4-2-64-64v-2l-4-2-7-8-195-195-7-8-9-12-8-16-10-23-11-30-9-24-7-20-15-43-10-28-2-8v-10l8-13 6-8zm79 97-2 3v14l6 25 13 27 2 3h2v2l4 1 11-7 17-12 9-10 10-14 2-4-1-4-15-9-28-11-17-4zm124 61-1 6-1 25-2 11-6 12-8 4-13 4-35 1 2 5 9 10 7 8 21 21h2l2 4h2v2l8 7 344 344 4 3 4-1 11-14 12-11 7-6v-2l3-1 7-8 9-9 9-11 5-5-2-4-10-9-214-214-5-6-8-7-9-10-6-5-1-2h-2l-2-4-69-69-8-7-57-57-8-5zm446 448-9 6-8 11-10 9-7 8-8 7-7 7-10 7-8 5 1 4 15 16 4 5 4 4h2l2 4 7 7 6 3 5-5 14-15 37-37 8-10-1-5-9-10-8-7-4-5-10-7zm75 96-9 4-31 31-2 7 1 5 6 5 15 4h12l12-6 7-8 3-7 1-5v-10l-2-12-5-7z" fill="#FEE06A"/>
<path transform="translate(1013,1275)" d="m0 0 6 1 5 1 17 4 18 6 3 3 6 1 4 5-4 5v5l27-1 3 4h-815l-7-1v-1l32-1h375l6-1 1-2-25-3-4-3 1-1h8l2 1 2-4 18-1 3-1 18-1 21-2 13-1h17l6 1 2-1h7l6 1 13-2 8 1 12-2 16 1 7 1 16-2h51l5-1h22l22-1 3-1 24-3 10-1 11-1 5-1z" fill="#FECF5F"/>
<path transform="translate(1280,238)" d="m0 0 2 4 1 38-1 145v317l2 93v109l-2 42-3-3v-711z" fill="#FFCF5F"/>
<path transform="translate(1407,439)" d="m0 0h1l1 10 1 30v364l1 111 1 60v58l-2 40-3-1-1-5z" fill="#FFCF5F"/>
<path transform="translate(889,1248)" d="m0 0h99l52 1 11 4v4l-9 1-18-2h-33l-34-1h-31l-9-1-48-1h-122l-34-1h-14l-30-1v-1l6-1z" fill="#FECF5F"/>
<path transform="translate(256,433)" d="m0 0h1l1 26v52l-1 550h-1l-1-31v-571z" fill="#FFCF5F"/>
<path transform="translate(769,364)" d="m0 0 2 1 3 33-1 33v106l1 17v20l-1 14-1 37-2 2-2-4v-235z" fill="#FFCF5F"/>
<path transform="translate(297,1306)" d="m0 0h380l6 1v1l-17 1h-383l-7-1v-1z" fill="#FED160"/>
<path transform="translate(955,815)" d="m0 0 7 1 1 2 5 3 4 5 2 10 5 4 1 7-1 3-12 3-3-2v6l-2 10 5 2-4 1-4-1-1 3-10 1-2-2 3-3-1-3 7-1 2-5-2-2-1-5 2-5h3l-1-2 2-6 4-7-12 1-1-7-3-5v-4z" fill="#FECF5F"/>
<path transform="translate(830,354)" d="m0 0h1l-1 175v122h-2l-1-8-1-42 1-159v-27l1-43z" fill="#FECF5F"/>
<path transform="translate(1341,807)" d="m0 0h1l1 153 1 81-1 4h-2l-2-44v-74z" fill="#FECF5F"/>
<path transform="translate(1341,187)" d="m0 0h1l1 114v51l34 1 16 1v2h-25l-23-2-5-2-1-1v-38l1-92z" fill="#FECF5F"/>
<path transform="translate(683,1306)" d="m0 0m-170 0h164l6 1v1l-17 1h-205v-2z" fill="#FED664"/>
<path transform="translate(1468,974)" d="m0 0h1l1 116v86h-1l-2-52v-129z" fill="#FECF5F"/>
<path transform="translate(257,183)" d="m0 0h1v168h-3l1-163z" fill="#FFCF5F"/>
<path transform="translate(1395,1296)" d="m0 0h2l1 11 1 1v6l-6 1-15 11-6 7-5 3h-2l2-5 9-6 2-7 2-4 8-6 3-8z" fill="#FFCF5F"/>
<path transform="translate(1419,1276)" d="m0 0 5 1 3 5 5 2 5 6-1 3-5-2-6-1-3 1v-4l-5-2-3 3-4-1-4-2 7-2h2z" fill="#FFCF5F"/>
<path transform="translate(1083,1288)" d="m0 0 5 1 7 5v2l-2 2h-6l-4-1-6-1 2-6z" fill="#FED05F"/>
<path transform="translate(946,857)" d="m0 0h7l1 2-3 3h-10l1 4-1 4 2 2-3 3v3l-5-1 2-10 3-6 4-1v-2z" fill="#FFCF5F"/>
<path transform="translate(828,1039)" d="m0 0h1l1 25v21l-2-1-1-5v-18z" fill="#FFCF5F"/>
<path transform="translate(962,872)" d="m0 0h2v7l-6 2-2-1-2 5-2-2v-7l5-2z" fill="#FECF5F"/>
</svg>
