<?xml version="1.0" encoding="UTF-8"?>
<svg version="1.1" viewBox="0 0 1600 1600" width="1280" height="1280" xmlns="http://www.w3.org/2000/svg">
<path transform="translate(582,24)" d="m0 0h841l55 1 37 2 15 3 8 4 10 8 7 7 10 14 5 13 3 18 1 18v424l-1 299-2 28-3 14-7 14-9 11-7 7-10 6-12 4-18 2-27 1-55 1-614 2-9 2-18 11-28 16-27 16-24 14-30 18-26 15-28 16-24 14-21 12-17 10-21 12-24 13-11 5h-7l-9-5-8-10-2-5 2-12 5-15 15-35 9-22 12-28 10-23 9-20h-110l-22-2-16-5-11-8-7-7-9-11-8-14-3-10-1-9-1-34v-680l1-45 2-21 5-13 8-12 13-13 14-9 15-4 12-1 38-1zm159 50-310 1-21 1-7 2-2 2-1 6-1 18-1 38v704l1 14 2 7 5 4 10 2 18 1 106 1 35 1 14 2 4 2 3 6v13l-4 19-10 29-15 32-9 20-7 14 1 2 20-10 17-11 15-9 14-8 24-14 49-29 51-30 20-12 23-14 6-2 7-1 39-1h659l21-1 4-1 1-9 1-32 1-317-1-407-1-18-2-11-3-2-11-1-127-1z" fill="#FDDE6B"/>
<path transform="translate(215,926)" d="m0 0h21l17 2 19 5 15 6 16 10 13 10 10 10 10 13 8 13 8 16 6 18 3 15 1 10v15l-2 17-4 17-8 20-7 12-7 10-3 5 27 14 18 12 12 11 8 8 10 15 8 16 7 21 3 20 1 25v177l-1 61-1 27-2 8-5 4-5 2-8 1-47 1h-294l-23-1-7-2-4-6-2-9-1-16-1-183v-73l1-21 3-16 6-19 8-14 9-14 11-13 8-8 16-11 25-13 5-2-1-5-6-11-9-16-6-15-5-16-2-12v-30l3-17 7-21 10-19 10-14 13-15 17-13 13-8 11-5 20-6 12-2zm0 48-16 3-12 5-11 6-9 7-8 8-9 13-8 17-4 17-1 19 3 17 5 13 6 10 9 12 8 8 14 9 15 7 14 3h26l14-3 14-6 11-7 13-11 8-10 7-12 5-17 2-11v-20l-5-21-8-16-6-8-9-10-12-9-14-7-13-4-14-2zm-66 225-17 3-12 4-14 7-11 8-9 12-7 14-3 11-1 9-1 21v238h298l1-1 1-121v-131l-2-17-4-14-5-9-8-10-7-7-11-7-8-4-13-4-14-2h-41l-5 2 1 6 7 19 15 48 8 29 8 33 1 6v13l-5 14-8 14-16 23-12 17-7 9-10 10-10 6-9-1-8-6-11-11-13-17-16-24-11-18-7-16-1-15 6-24 5-21 11-36 12-36 5-16v-6l-4-2zm75 75-6 10-10 34-3 16v14l4 13 5 5 5 4 5 2 6-1 6-4 5-10 2-9v-18l-5-20-8-28-5-8z" fill="#FDDE6B"/>
<path transform="translate(1379,375)" d="m0 0h47l10 2 8 4 4 13 1 35v249l-1 140-4 3-7 2-84 1h-37l-10-2-4-7-2-12-1-17-1-44v-215l1-111 1-29 2-5 4-3 13-2 19-1zm-16 48-15 1-1 2 1 186v165l17 1h32l2-1v-183l1-109v-59l-1-2-9-1z" fill="#FDDE6B"/>
<path transform="translate(586,226)" d="m0 0h25l8 2 3 5 1 4 1 22 1 115 2 1h130l8 2 4 4 4 20v20l-4 22-5 16-5 12-8 15-13 19-12 14-5 6h-2v2l-11 9-12 9-13 8-16 7-15 5-23 5-19 2h-27l-19-2-17-4-19-7-21-11-13-9-14-12-8-8-9-11-11-16-10-19-8-20-5-16-4-20v-35l5-26 5-16 8-19 10-17 9-12 11-13 10-10 16-12 18-11 16-8 21-7 23-4zm-15 47-11 5-19 10-14 10-10 8-8 7-7 8-9 12-9 17-6 18-3 24v17l2 18 4 16 8 16 6 10 9 11 6 7h2l1 3 14 11 11 7 14 7 15 5 14 3h38l21-5 19-8 18-12 12-11 8-9 10-15 7-12 5-13 2-9v-5h-88l-39-1-10-2-4-4-3-15-1-10-1-51v-50l-1-15-1-3z" fill="#FDDE6B"/>
<path transform="translate(1316,127)" d="m0 0h18l104 4 39 3 12 3 7 4 3 5-1 12-3 13-10 19-14 24-9 14-13 21-13 19-8 12-10 14-7 8-9 6-9-1-8-5-7-8-10-16-8-13-7-13-9 2-34 18-54 27-19 10-29 15-19 10-29 15-33 17-32 16-19 10-27 14-28 15-25 13-22 12-66 33-22 10-3-1-18-36v-5l5-4 39-20 16-8 32-17 25-13 19-10 37-19 19-10 37-19 19-10 41-21 19-10 29-15 19-10 25-13 22-12 17-8 19-10 20-11 3-2-1-6-12-23-4-10-4-16v-7l3-10 4-5zm58 52-2 1 1 5 9 14 8 15 5 9 5 5h2l8-10 12-20 7-14v-4l-2-1z" fill="#FDDE6B"/>
<path transform="translate(1179,475)" d="m0 0h71l15 2 6 4 2 4v330l-4 5-6 3-76 1h-48l-7-2-4-4-2-10-1-12-1-37v-218l1-47 2-13 5-3 16-2zm-1 48-5 1v246l1 7 20 1h32v-253l-1-1-10-1z" fill="#FDDE6B"/>
<path transform="translate(1029,575)" d="m0 0h49l12 2 6 4 2 3v225l-2 7-7 6-11 1-65 1h-49l-7-2-5-10-1-7-1-17v-198l3-9 4-3 9-1zm-11 48-20 1v152l1 1h51l1-3v-150l-9-1z" fill="#FDDE6B"/>
<path transform="translate(671,151)" d="m0 0h17l23 3 21 5 19 8 16 9 15 11 9 7 18 18 10 14 10 18 10 23 6 20 3 18 1 18v12l-3 5-6 4-12 3-7 1h-150l-11-1-5-3-3-9-2-22-1-74v-67l4-13 6-5zm27 49v101h24l73-1 2-1-1-8-6-14-12-22-10-13-10-11-11-9-11-7-23-11-11-4z" fill="#FDDE6B"/>
<path transform="translate(816,650)" d="m0 0h80l20 2 6 4 2 11v124l-1 16-2 9-6 5-11 2-75 1h-33l-11-1-5-3-3-9-2-15-1-19v-105l2-12 6-7 8-2zm6 48 1 7 1 67 1 4h48l2-1 1-57v-19l-1-1z" fill="#FDDE6B"/>
<path transform="translate(1448,429)" d="m0 0h1v249l-1 140-1-4-4-1 1-13v-27l-1-38v-232l1-28 2-5 1-13z" fill="#FEEF67"/>
<path transform="translate(745,166)" d="m0 0 6 1 16 9 15 11 9 7 18 18 7 9-2 2-5-1-3-2h-2v-2l-5-2-2 1-3-1 4 8 5 5 4 5v2l-4 1-2-3 1-1-7-5-2-2-4-2-8-8-4-1-14-14-6-8-9-9-2-7-3-4 1-3z" fill="#FEEF67"/>
<path transform="translate(450,488)" d="m0 0 6 1 5 6 5 4 9 9v2l5 2 6 5v2l5 2 9 7 8 7v2l4 2 10 6 8 5 1 3 5 2 6 7-1 2-17-7-17-9-13-9-14-12-8-8-9-11-11-16z" fill="#FEEF67"/>
<path transform="translate(483,469)" d="m0 0 5 2 5 3 7 10 3 7 8 1 3 8-4 1-2 4-4 1 1 4-8-2-5-5-5-3-4-8-4-10-1-5 4-5z" fill="#FFF067"/>
<path transform="translate(524,499)" d="m0 0 4 2 13 8 10 5v1h-7l-5-1-2 2-2-2h2l-3-3-8-6z" fill="#FEEF67"/>
<path transform="translate(833,255)" d="m0 0 2 2 6 16v3l-4-1-3-4-3-6-1-9z" fill="#FEEE67"/>
<path transform="translate(484,451)" d="m0 0 3 3 7 12 5 7-2 1-1 2-2-6-4-1-6-11-1-5z" fill="#FEEE67"/>
<path transform="translate(435,454)" d="m0 0 3 3 3 6 2 3v3h2l2 4-1 5-3-3-8-19z" fill="#FEEE67"/>
<path transform="translate(842,296)" d="m0 0h4l2 9-1 3-1-2h-2l-3-5z" fill="#FEEF67"/>
</svg>
