<?xml version="1.0" encoding="UTF-8"?>
<svg version="1.1" viewBox="0 0 1600 1600" width="1280" height="1280" xmlns="http://www.w3.org/2000/svg">
<path transform="translate(565)" d="m0 0h207l73 9 52 8 42 8 62 14 32 9 38 12 28 10 34 14 35 17 19 10 24 15 15 10 14 10 10 8 14 12 15 14 9 9 9 11 11 15 8 13 11 21 9 24 4 21 2 27 1 119v379l-1 54-2 9-6 5-10 4-18 2-14-3-6-5-4-9-1-3-1-14-1-77-6 3-12 11-28 22-15 10-13 8-15 9-21 12-26 13-36 15-27 10-43 14-48 13-64 14-43 7-53 7-44 4-52 3-40 1h-50l-38-1-54-3-53-5-58-9-36-6-57-13-44-12-50-17-28-11-23-10-29-14-25-14-21-13-15-10-17-13-10-9-8-7-13-12v183l2 17 3 12 12 25 10 15 11 14 10 10v2l4 2 10 9 14 11 14 10 21 13 18 11 16 8 27 13 29 12 35 13 28 9 52 14 37 8 38 7 49 7 50 5 44 3 50 2h49l50-2 60-4 12-1h21l10 5 7 7 4 9 1 5v12l-4 11-4 5-9 6-11 3-27 3-53 3-25 1h-122l-55-3-53-5-47-7-48-8-57-13-40-11-40-13-35-13-28-12-33-16-25-14-18-11-15-10-18-14-11-10-8-7-12-11v149l3 22 5 16 9 19 8 12 9 12 11 12 7 7 28 22 21 14 20 12 16 9 26 13 28 12 29 11 38 13 31 9 44 11 41 8 50 8 53 6 41 3 36 2 29 1h59l58-3 40-3 56-6 39-6 26-5h7l13 7 8 9 4 8 1 5v13l-4 8-8 7-11 5-21 5-45 7-41 5-33 3-52 3-25 1h-93l-48-2-43-3-38-4-69-10-31-6-48-11-44-12-36-12-31-11-33-14-33-16-23-13-19-12-18-12-18-14-14-13-8-7-14-14-7-8-13-16-11-18-6-10-11-25-6-14-3-13v-990l19-42 7-14 10-15 10-13 13-16 12-13 8-7 13-11 14-11 17-12 26-16 16-9 22-12 24-11 31-13 16-6 30-10 37-11 36-9 49-11 39-7 52-8 45-6zm72 62-57 3-51 5-55 7-36 6-58 12-34 9-31 9-43 15-32 13-24 11-27 14-24 15-22 15-14 11-16 15-12 12-11 14-7 10-8 15-8 22-4 18v12l3 17 6 17 8 16 10 16 10 13 7 7 1 2h2v2h2v2l8 7 10 8 17 13 21 14 20 12 28 15 34 15 26 10 22 8 44 14 38 10 37 8 39 7 49 7 50 5 42 3 48 2h69l51-3 45-4 52-6 37-6 50-10 51-13 39-12 18-6 38-15 20-9 25-12 25-14 19-12 16-11 16-13 13-12 14-14 9-11 12-17 8-17 4-11 2-9 1-10v-14l-2-15-4-14-5-12-9-17-11-15-12-14-11-11-8-7-14-11-17-12-21-13-25-14-27-13-28-12-26-10-36-12-36-10-32-8-33-7-44-8-34-5-66-7-41-3-48-2zm-574 397v184l3 21 4 11 10 21 10 15 11 14 19 19 14 11 13 10 15 10 21 13 18 10 24 12 25 11 37 14 42 14 36 10 28 7 45 9 51 8 44 5 33 3 51 3 28 1h66l53-3 45-4 53-6 37-6 45-9 52-13 40-12 21-7 38-15 20-9 25-12 18-10 17-10 22-15 13-10 14-12 15-15 12-13 13-18 7-16 5-15 2-11 1-15 1-126v-51l-5 1-11 9-12 10-14 11-18 13-20 12-17 10-11 6-16 8-21 10-34 14-17 6-41 14-47 13-34 8-43 9-45 7-46 6-44 4-52 3-41 1h-45l-41-1-54-3-53-5-52-8-36-6-28-6-39-9-43-12-44-15-26-10-26-11-33-16-28-16-24-15-19-14-13-11-12-11-10-9z" fill="#FDDC6E"/>
<path transform="translate(1522,941)" d="m0 0h17l13 3 10 6 3 5 1 5 1 80v139l-3 3-20 1h-159l-37-1-11-2-6-5-8-14-1-4v-11l4-11 4-6 7-5 8-2 9-1 103-3 8-1-3-5-15-15-8-7-11-10-14-11-18-12-23-12-20-8-21-6-21-4-12-1h-47l-16 2-26 6-20 6-25 11-18 10-16 11-13 10-12 11-8 7-3 4h-2l-2 4-10 11-12 17-9 15-8 14-11 25-8 27-5 24-3 26v30l3 24 6 28 8 24 14 29 10 17 9 12 9 11 8 9v2h2l7 8 10 9 14 11 15 11 17 10 21 11 24 9 25 6 26 4 21 2h14l21-2 28-5 19-5 19-7 16-8 17-9 24-16 17-14 8-7 15-15 10-13 11-16 11-19 11-23 5-15 6-23 6-33 3-25 3-14 7-11 5-4 11-2 16 2 11 4 10 8 2 2v61l-9 32-9 31-9 21-9 17-6 11-12 20-8 11-10 14-13 15-5 6-8 7-9 9-14 11-13 10-19 12-21 12-23 11-23 9-29 9-26 6-2 1h-88l-23-6-25-8-35-13-26-12-24-14-17-12-10-8-11-10-8-7-16-16-9-11-8-10-16-24-14-25-13-29-9-27-7-29-4-29-1-10v-43l3-27 6-31 12-36 9-20 12-23 8-13 13-19 10-13 9-10 11-12 14-14 22-18 16-11 22-13 24-12 28-11 25-7 28-5 29-3h41l33 4 22 5 23 7 20 9 25 13 19 12 13 10 11 9 10 9 8 8v2h2l6 7 6 5 5 5-1-3v-21l2-82 3-11 6-4z" fill="#FDDC6E"/>
<path transform="translate(565)" d="m0 0h207l42 5 4 3-2 3-13 2-6 3-8 2v-3l-5 5-2 1-5-1v2l-9 4h-3v2h-8l-1-2-9-3-16-4-3-3-11 1-11-1-5 4-7 1-9 3h-9l-4 2v2l6-3 7 3 1 3h-2v2l-4 1-12 2v2l-4 1-1 4h-2v2h-7l1-6 3-2 1-3 5-2-7-2v2l-2 1-1 3h-3v2h-7l-2 5-1 2-2-1-1 5 7-1 1 3-1 3-5 2h-2v-4l-6 6-9-1-15 3-8 2-4 2-28 3h-18l-1-1h-7l-13-3-7 1-4-2v-4l-8-2v-3h-6l-3-3v-6l8-4v-5l-4-1-5-8-2-6-1-4-3-5v-2l44-6z" fill="#FDCF6B"/>
<path transform="translate(1564,963)" d="m0 0h2l1 77v139l-3 3-20 1h-159l-33-1 2-2 11-2 22-1 4-2 12-2 33-1h34l2 1 21 1 18 3h16l-4-3 9 2 18 2h10l1-12 1-67 1-117z" fill="#FDD070"/>
<path transform="translate(525,627)" d="m0 0h28l49 1 23 1h86l11-1 44-1h57l5 1v2l-44 4-52 3-41 1h-45l-41-1-54-3-34-3-4-2z" fill="#FBCE6D"/>
<path transform="translate(773,947)" d="m0 0 3 1h36l4 2-7 2-38 3-38 2-40 1h-50l-38-1-54-3-24-2-4-2 11-2h48l12 1h35l22 1h40l36-1 38-1z" fill="#FBCE6C"/>
<path transform="translate(1340,326)" d="m0 0 2 2 1 112v379l-1 54-1 5h-1l-1-12v-449z" fill="#D5AB60"/>
<path transform="translate(738,1269)" d="m0 0h54l12 2v1l-12 2-63 3h-122l-55-3-12-1v-2l19-1h79l36 1h29l18-1z" fill="#FCCE6B"/>
<path transform="translate(1301,1579)" d="m0 0h7l1 2 9 1 3-1 13-1 5 1 10-1h4l3 3h9l2 4h-3v2l-25 7-16 4h-34l1-4 4-2v-3l-7 2-6 5-3-2 1-5-1-4 8-4 3-3h10z" fill="#FDCF6B"/>
<path transform="translate(538,1557)" d="m0 0h66l31 1 52 3h19l9-1 32-1 3-1h31l17 1-3 2-52 3-25 1h-93l-48-2-43-3-4-2z" fill="#FDD06B"/>
<path transform="translate(1339,306)" d="m0 0h2l1 22h-1l-1 89v449l1 14-2 3-2-1v-101l1-59v-58l-1-143v-62l1-65z" fill="#FDCF6B"/>
<path transform="translate(1565,967)" d="m0 0h1l1 73v139l-3 3-20 1h-122l-32-1v-1l14-1h157l1-3 1-24 1-97z" fill="#D8B26E"/>
<path transform="translate(1372,1161)" d="m0 0 12 1v2l3 1h17l19 1-7-1v-1l-6-1v-1h71l11 2 2 1h6l4 2 8 3 9 2 2 2-13-1-3-1-12-1-2-1-19-1h-39l-5-1h-23l-7 1-11 1-8-1-1-1-9-2-1-2 2-1z" fill="#FDCF6B"/>
<path transform="translate(3,671)" d="m0 0 2 1 1 9v19l1 6h-2l2 4v11l-1 1v10l1 18-1 9v11l-3 10-3 2v-108z" fill="#FDCF6B"/>
<path transform="translate(1509,1123)" d="m0 0h2l1 2 8-1-2 7 1 6-5 8 5-1-4 4-9 5-3 1-1 3-3-1-2-5-1-5 1-2 8-4v-2l-4-2-3 5-5 1-5-2 1-5 1-3h6v-2l-4-2v-4h8l9 1z" fill="#FDCF6B"/>
<path transform="translate(1281,476)" d="m0 0h1l1 15 1 34-1 61-1 30-2 13h-1v-116l1-36z" fill="#D3A758"/>
<path transform="translate(42,1045)" d="m0 0h5l5 7v9l4 11-2 4 4 2-1 4-7 2-4-1 1 3-2 6-4 3-2-5-1-1v-12h2v-11l2-10 4 1-1-5-1-4h-2z" fill="#FDCF6B"/>
<path transform="translate(1404,1180)" d="m0 0h148l7 1v1l-15 1h-122l-32-1v-1z" fill="#D8AF64"/>
<path transform="translate(1387,1120)" d="m0 0h55v1l-13 2-7 2h-12v2h-12v-1h-28l-23-1v-3l7-1z" fill="#FDCF6C"/>
<path transform="translate(1564,963)" d="m0 0h2l-2 184v11l-1 19-4 4h-7v-3h8l1-12 1-67 1-117z" fill="#FDCF6B"/>
<path transform="translate(61,795)" d="m0 0h3v26l-1 119h-1l-1-7z" fill="#D3A758"/>
<path transform="translate(62,475)" d="m0 0 2 1v28l-1 117h-1l-1-6v-139z" fill="#D3A758"/>
<path transform="translate(61,1115)" d="m0 0h3v32l-1 75h-1l-1-8z" fill="#D3A758"/>
<path transform="translate(1280,796)" d="m0 0 2 4 1 24v25l-1 22h-1l-1-12z" fill="#D4A95D"/>
<path transform="translate(1387,1120)" d="m0 0h45v1l-15 2h-52v-2z" fill="#D5AB61"/>
<path transform="translate(0,407)" d="m0 0 3 1 1 11-1 8v19l-1 9-2 2z" fill="#FDCF6B"/>
<path transform="translate(834,60)" d="m0 0 4 1v2l-33 6h-12l-1-2 4-2 16-1 7-2h7z" fill="#FDCF6B"/>
<path transform="translate(3,351)" d="m0 0 1 3 2 14-4 2 2 7 1 10-4-1-1 2v-34z" fill="#FDCF6B"/>
<path transform="translate(1282,792)" d="m0 0 3 1 1 6-2 6v51l-1 14h-1v-46l-1-24-1-6z" fill="#FDCF6B"/>
<path transform="translate(1339,306)" d="m0 0h2l1 22h-1l-1 66h-1z" fill="#FCD06F"/>
<path transform="translate(1513,1112)" d="m0 0 4 1 2 7-5-1v2l-9 3-4-2v-2l9-2-1-3z" fill="#FDCF6B"/>
<path transform="translate(0,1060)" d="m0 0 3 1 1 2v13l-1 7-2 6h-1z" fill="#FDCF6B"/>
<path transform="translate(1299,960)" d="m0 0h11l24 3 2 2h-20l-12-2-5-2z" fill="#FDD06E"/>
<path transform="translate(898,598)" d="m0 0 6 2 2 1-2 4-9 2v2l-5 1 2-6 4-1z" fill="#FDCF6B"/>
<path transform="translate(0,335)" d="m0 0 4 3v12h-3l-1 2z" fill="#FDCF6B"/>
<path transform="translate(1248,960)" d="m0 0h7l-8 4-11 1-3-2 6-2z" fill="#FDD070"/>
<path transform="translate(954,1500)" d="m0 0 3 3 1 5v13l-2 2-1-10z" fill="#FACC69"/>
<path transform="translate(1510,1100)" d="m0 0 5 1 1 4-10 3-1-3z" fill="#FDCF6B"/>
<path transform="translate(962,1238)" d="m0 0h1v15l-2 5h-1v-11l1-8z" fill="#D3A758"/>
<path transform="translate(48,754)" d="m0 0 5 3 1 2-1 5-5-1-1-2z" fill="#FDCF6B"/>
<path transform="translate(1338,866)" d="m0 0h2l1 14-2 3-2-1v-15z" fill="#FDD171"/>
<path transform="translate(1488,1152)" d="m0 0h3l1 7-8-2 2-4z" fill="#FDCF6B"/>
<path transform="translate(0,1039)" d="m0 0 3 2v10l-3 3z" fill="#FDCF6B"/>
<path transform="translate(1307,890)" d="m0 0h16l-4 2-13 1z" fill="#FDD681"/>
<path transform="translate(0,1029)" d="m0 0 6 3-1 4-5 1z" fill="#FDCF6B"/>
<path transform="translate(1,313)" d="m0 0h2v10l-3 3v-12z" fill="#FDCF6B"/>
<path transform="translate(1469,1151)" d="m0 0h2l1 5-5 1v-4z" fill="#FDCF6B"/>
</svg>
